<svg width="25" height="17" viewBox="0 0 25 17" fill="none" xmlns="http://www.w3.org/2000/svg">
<path d="M23.8569 2.77446C23.5842 1.74798 22.781 0.93956 21.7612 0.665211C19.9127 0.166687 12.5003 0.166687 12.5003 0.166687C12.5003 0.166687 5.08798 0.166687 3.23941 0.665211C2.21957 0.939604 1.41636 1.74798 1.14375 2.77446C0.648438 4.635 0.648438 8.51686 0.648438 8.51686C0.648438 8.51686 0.648438 12.3987 1.14375 14.2593C1.41636 15.2857 2.21957 16.0605 3.23941 16.3348C5.08798 16.8334 12.5003 16.8334 12.5003 16.8334C12.5003 16.8334 19.9126 16.8334 21.7612 16.3348C22.781 16.0605 23.5842 15.2857 23.8569 14.2593C24.3522 12.3987 24.3522 8.51686 24.3522 8.51686C24.3522 8.51686 24.3522 4.635 23.8569 2.77446ZM10.076 12.0413V4.99242L16.2713 8.51695L10.076 12.0413Z" fill="#F87661"/>
</svg>
